<?xml version="1.0" encoding="utf-8"?>
<!-- Generator: Adobe Illustrator 18.1.0, SVG Export Plug-In . SVG Version: 6.00 Build 0)  -->
<svg version="1.1" id="Layer_1" xmlns="http://www.w3.org/2000/svg" xmlns:xlink="http://www.w3.org/1999/xlink" x="0px" y="0px"
	 viewBox="0 0 212.8 114.2" enable-background="new 0 0 212.8 114.2" xml:space="preserve">
<g>
	<g>
		<g>
			<g>
				<polygon fill="#FFFFFF" points="33.2,54.8 16,95.4 30.9,95.9 40.5,106.6 58.6,64.4 				"/>
			</g>
			<g>
				<path fill="#E57E25" d="M48.2,77.9c-18.4,0-33.3-14.9-33.3-33.3c0-18.4,14.9-33.3,33.3-33.3c18.4,0,33.3,14.9,33.3,33.3
					C81.5,62.9,66.6,77.9,48.2,77.9z"/>
			</g>
			<g>
				<path fill="#FFFFFF" d="M73.8,70.2c6.8-6.8,10.6-16,10.6-25.6s-3.8-18.8-10.6-25.6C67,12.1,57.9,8.3,48.2,8.3
					s-18.8,3.8-25.6,10.6c-6.8,6.8-10.6,16-10.6,25.6s3.8,18.8,10.6,25.6c6.6,6.6,15.4,10.4,24.7,10.6l8.4,26.8l10.7-8.8l15.2,0.7
					l-9.1-28C72.9,71.1,73.4,70.7,73.8,70.2z"/>
			</g>
			<g>
				<path fill="#FFFFFF" d="M48.2,14.2c16.8,0,30.4,13.6,30.4,30.4S65,74.9,48.2,74.9c-16.8,0-30.4-13.6-30.4-30.4
					S31.4,14.2,48.2,14.2"/>
			</g>
			<g>
				<path fill="#E57E25" d="M71.4,67.8c6.2-6.2,9.6-14.4,9.6-23.2s-3.4-17-9.6-23.2c-6.2-6.2-14.4-9.6-23.2-9.6
					c-8.8,0-17,3.4-23.2,9.6c-6.2,6.2-9.6,14.4-9.6,23.2s3.4,17,9.6,23.2c5.2,5.2,11.8,8.4,18.9,9.3l0.1,0.5l3.8,12.3l1.3-3l-3-9.5
					c0.7,0,1.3,0.1,2,0.1C57,77.4,65.2,74,71.4,67.8z"/>
			</g>
			<g>
				<path fill="#FFFFFF" d="M48.2,14.2c16.8,0,30.4,13.6,30.4,30.4S65,74.9,48.2,74.9S17.8,61.3,17.8,44.6S31.4,14.2,48.2,14.2"/>
			</g>
			<g>
				<g>
					<path fill="#E57E25" d="M40.9,47.3c0.4,0,0.7-0.2,0.9-0.6c1-1.6,3.2-2.5,6.6-2.5l4.5,0.2c2.9,0,4.9-0.7,6.1-2
						c1.1-1.3,1.7-3.7,1.7-7.1c0-3.4-0.8-5.8-2.3-7.3c-1.5-1.5-4.4-2.2-8.6-2.2c-4.2,0-7.2,0.8-8.9,2.3c-1.7,1.5-2.6,5.1-2.6,10.7
						C38.4,44.4,39.2,47.3,40.9,47.3z"/>
				</g>
				<g>
					<path fill="#E57E25" d="M56.3,52c-3,0-7.7,1.1-14.1,3.2c-6.5,2.2-9.7,4.4-9.7,6.6c0,0.8,0.4,1.3,1.1,1.5c1,0.6,1.9,1.6,2.7,2.8
						c1.1,1.7,1.9,4.1,2.5,7.2c3,1,6.1,1.5,9.4,1.5c4.2,0,8.2-0.9,11.9-2.4c0.6-9.9,0.9-16,0.9-18.3C60.8,52.7,59.3,52,56.3,52z"/>
				</g>
			</g>
		</g>
	</g>
	<g>
		<polygon fill="#E57E25" points="38.7,73.2 38.8,73.4 43.2,74.9 51.3,74.9 61,73.1 58.7,71.3 43,71.8 		"/>
	</g>
</g>
<g>
	<path fill="#FFFFFF" d="M98.5,58.9L99,48.2c0-2.6-0.3-4.3-0.9-5.2c-0.2-0.3-0.4-0.5-0.6-0.7c-0.2-0.1-0.3-0.2-0.3-0.4
		c0-0.6,0.8-1.1,2.4-1.6c1.6-0.5,2.7-0.8,3.4-0.8c0.7,0,1.1,0.2,1.1,0.6c0,0.6-0.1,2.4-0.3,5.2c-0.2,2.9-0.3,5.9-0.3,9.1
		c0,3.2,0.2,5.1,0.6,5.9c0.1,0.2,0.1,0.3,0.1,0.5c0,0.4-0.6,0.6-1.8,0.6c-1.2,0-2.4-0.3-3.6-0.9C98.6,60.2,98.5,59.7,98.5,58.9z
		 M102.2,35.6l-1.1,0c-0.8,0-1.4,0.2-1.6,0.6c-0.1,0.1-0.1,0.1-0.2,0.1c-0.4,0-0.6-0.7-0.6-2.1c0-1.4,0.2-2.2,0.6-2.6
		c0.4-0.4,1.1-0.6,2.2-0.6c1,0,1.7,0.2,2.1,0.5c0.4,0.4,0.6,0.9,0.6,1.8c0,0.8-0.1,1.4-0.4,1.7C103.4,35.4,102.9,35.6,102.2,35.6z"
		/>
	<path fill="#FFFFFF" d="M116.3,39.6c0.6,0,1.1,0.1,1.5,0.2c0.4,0.1,0.7,0.2,0.7,0.2l0.3-0.2l-0.2-5c-0.1-0.9-0.2-1.6-0.6-2.2
		c-0.3-0.6-0.6-1-0.8-1.2l-0.4-0.2c-0.2-0.1-0.3-0.3-0.3-0.4c0-0.5,0.7-1,2.1-1.6s2.5-0.9,3.3-0.9c0.8,0,1.2,0.2,1.3,0.5
		c0.2,1,0.2,3,0.2,6c0,2.9-0.1,5.8-0.2,8.7c-0.1,2.8-0.2,6-0.2,9.6c0,3.6,0.2,5.8,0.7,6.8c0.1,0.2,0.2,0.4,0.2,0.6
		c0,0.5-0.7,0.7-2,0.7c-2.5,0-3.8-0.6-3.8-1.8c-0.1-0.5-0.1-1.3-0.1-2.3c0-1,0.1-3,0.3-5.8c0.2-2.8,0.3-5,0.3-6.5s-0.8-2.3-2.3-2.3
		c-1.5,0-2.7,0.9-3.5,2.7c-0.8,1.8-1.2,3.6-1.2,5.4c0,3.8,1,5.7,2.9,5.7c0.3,0,0.5-0.1,0.8-0.2c0.3-0.1,0.4-0.2,0.5-0.2
		c0.2,0,0.4,0.2,0.6,0.5c0.1,0.3,0.2,0.6,0.2,0.9c0,1-0.4,1.9-1.2,2.7s-1.8,1.1-3,1.1c-1.8,0-3.2-0.8-4.2-2.4
		c-0.9-1.6-1.4-3.6-1.4-6c0-3,0.7-5.9,2.2-8.5c0.7-1.3,1.7-2.3,3-3.1C113.3,40,114.7,39.6,116.3,39.6z"/>
	<path fill="#FFFFFF" d="M127.2,58.9l0.5-10.8c0-2.6-0.3-4.3-0.9-5.2c-0.2-0.3-0.4-0.5-0.6-0.7c-0.2-0.1-0.3-0.2-0.3-0.4
		c0-0.6,0.8-1.1,2.4-1.6c1.6-0.5,2.7-0.8,3.4-0.8c0.7,0,1.1,0.2,1.1,0.6c0,0.6-0.1,2.4-0.3,5.2c-0.2,2.9-0.3,5.9-0.3,9.1
		c0,3.2,0.2,5.1,0.6,5.9c0.1,0.2,0.1,0.3,0.1,0.5c0,0.4-0.6,0.6-1.8,0.6c-1.2,0-2.4-0.3-3.6-0.9C127.4,60.2,127.2,59.7,127.2,58.9z
		 M130.9,35.6l-1.1,0c-0.8,0-1.4,0.2-1.6,0.6c-0.1,0.1-0.1,0.1-0.2,0.1c-0.4,0-0.6-0.7-0.6-2.1c0-1.4,0.2-2.2,0.6-2.6
		c0.4-0.4,1.1-0.6,2.2-0.6c1,0,1.7,0.2,2.1,0.5c0.4,0.4,0.6,0.9,0.6,1.8c0,0.8-0.1,1.4-0.4,1.7C132.1,35.4,131.6,35.6,130.9,35.6z"
		/>
	<path fill="#FFFFFF" d="M136.3,53.2c0.1-3.1,0.1-5.7,0.1-7.7s-0.1-3.9-0.4-5.7c0-0.3,0.3-0.5,0.9-0.5s1.1,0.1,1.6,0.2
		c0.4,0.2,0.8,0.3,0.9,0.5c0.5,0.5,0.8,0.7,0.9,0.7s0.3-0.1,0.7-0.4c1.2-0.8,2.5-1.2,4-1.2c1.5,0,2.7,0.4,3.8,1.1
		c1.1,0.7,1.9,1.7,2.3,2.9c0.8,2.1,1.2,4.2,1.2,6.6c0,2.3-0.4,4.6-1.2,6.8c-0.5,1.2-1.1,2.2-2,3c-0.9,0.8-1.9,1.2-3.1,1.2
		c-2.4,0-3.6-1.4-3.6-4.1c0-0.7,0.2-1.1,0.5-1.1c0.1,0,0.2,0.1,0.5,0.2c0.3,0.1,0.6,0.2,0.9,0.2c2.2,0,3.3-2.3,3.3-7
		c0-4.6-1.2-7-3.5-7c-0.6,0-1.2,0.1-1.6,0.4s-0.7,0.6-0.9,0.9l-0.2,0.5c-0.4,2.8-0.6,8.1-0.6,16c0,3.6,0.1,6.1,0.2,7.7
		c0.1,1.6,0.2,2.5,0.2,2.8c0,0.3-0.1,0.6-0.3,0.8c-0.6,0.8-1.4,1.5-2.5,2.1c-1,0.6-2,0.9-2.8,0.9c-0.3,0-0.5-0.2-0.5-0.6
		C135.6,70.7,136,63.8,136.3,53.2z"/>
	<path fill="#FFFFFF" d="M160.2,48.8l0.2,9.2c0,1.9-0.3,3.7-0.8,5.2s-1.1,2.6-1.9,3.3c-1.5,1.6-2.8,2.5-4,2.7l-0.8,0.2
		c-0.5,0-0.7-0.1-0.7-0.4l0.2-0.7c2.2-3.1,3.4-10.7,3.4-22.9c0-1.1,0-1.9,0-2.5c-0.6,0-1.3,0-1.9,0.1h0c-0.3,0-0.5-0.2-0.5-0.5
		l0.1-1.8c0-0.3,0.2-0.4,0.6-0.4h1.7v-3.1l0.1-4.4c0-0.2,0-0.5,0.1-0.7c0.1-0.3,0.4-0.7,1-1.2s1.4-1,2.6-1.5s2.1-0.7,2.9-0.7
		s1.2,0.2,1.2,0.7c0,0.2-0.1,0.3-0.4,0.5c-0.9,0.3-1.6,1.1-2.2,2.4c-0.6,1.3-0.9,3.5-0.9,6.7v1.3c1.6-0.1,2.6-0.1,3.1-0.2
		c0.2,0,0.3,0.2,0.3,0.6c0,0.4-0.2,0.8-0.5,1.4s-0.7,0.8-1.2,0.8c-0.5,0-1.1,0-1.8,0C160.3,45.1,160.2,47.1,160.2,48.8z"/>
	<path fill="#FFFFFF" d="M178.5,54.7c0,1.2-0.2,2.2-0.7,3.1c-0.5,0.9-1,1.5-1.6,1.9s-1.3,0.7-2.1,1c-1,0.3-2,0.5-2.9,0.5
		c-2.6,0-4.5-1-5.7-2.9c-1.2-1.9-1.8-4.4-1.8-7.4s0.8-5.7,2.3-8c1.5-2.3,3.8-3.5,6.9-3.5c2.8,0,4.7,1,5.6,2.9
		c0.4,0.7,0.6,1.4,0.6,2.1c0,0.7,0,1.2-0.1,1.6c-0.1,0.4-0.3,1-0.6,1.7c-0.4,0.8-0.9,1.5-1.5,2.1c-0.6,0.6-1.6,1.2-2.9,1.8
		c-1.3,0.6-2.9,0.9-4.7,1.1c-0.2,0-0.4,0.1-0.4,0.3c0,0.3,0.1,0.7,0.3,1.2c0.2,0.5,0.4,1,0.7,1.4c0.7,0.9,1.7,1.3,3,1.3
		s2.4-0.4,3.4-1.3c0.5-0.5,0.9-1,1.2-1.7c0.1-0.2,0.3-0.4,0.5-0.4s0.4,0.2,0.5,0.5S178.5,54.5,178.5,54.7z M168.4,48.6l0,1.2
		c0,0.2,0.1,0.3,0.4,0.3c1-0.1,1.8-0.3,2.6-0.8s1.3-0.9,1.7-1.4c0.7-1.1,1.1-2.1,1.2-3l0-0.6c0-1.7-0.7-2.5-2-2.5
		c-1,0-1.8,0.4-2.4,1.3C168.9,44.5,168.4,46.3,168.4,48.6z"/>
	<path fill="#FFFFFF" d="M194.7,47.9l0.2,1.6c0,0.6-0.6,0.9-1.7,0.9c-2.2,0-3.4-0.8-3.4-2.5c0-0.4,0.1-1,0.3-1.7
		c0.2-0.7,0.3-1.3,0.3-1.8c0-0.5-0.2-1-0.5-1.4c-0.3-0.4-0.8-0.6-1.3-0.6c-0.6,0-1.1,0.2-1.5,0.6c-0.4,0.4-0.7,0.8-0.8,1.3l-0.2,0.6
		c-0.2,1-0.3,2.5-0.3,4.8c0,2.2,0,4,0.1,5.3c0.1,1.3,0.1,2.2,0.2,2.6c0.1,0.5,0.1,0.8,0.1,0.9c0,0.8-0.5,1.4-1.4,1.9
		c-1,0.5-1.9,0.7-2.9,0.7c-1,0-1.4-0.2-1.4-0.6l0.2-1.4c0.4-2.7,0.6-6.2,0.6-10.5c0-4.3-0.2-7.2-0.5-8.8c0-0.4,0.3-0.6,1-0.6
		c1.7,0,2.8,0.6,3.3,1.7c0,0.1,0.1,0.2,0.2,0.2c0.1,0,0.3-0.1,0.6-0.4c1-0.8,2.2-1.2,3.6-1.2c0.9,0,1.7,0.2,2.6,0.5
		c1.8,0.7,2.6,2.2,2.6,4.4L194.7,47.9z"/>
	<path fill="#FFFFFF" d="M201.4,33.9l-0.3,17c0,5.3,0.2,8.5,0.5,9.5c0.1,0.2,0.1,0.4,0.1,0.6c0,0.4-0.4,0.6-1.3,0.6s-1.9-0.2-3-0.7
		c-1.1-0.4-1.6-1-1.6-1.7c0.6-4.3,0.9-10.1,0.9-17.3l-0.2-7.1c-0.1-0.9-0.2-1.6-0.5-2.2s-0.6-1-0.9-1.2l-0.4-0.2
		c-0.2-0.1-0.3-0.3-0.3-0.4c0-0.4,0.7-1,2-1.6c1.3-0.6,2.6-0.9,3.9-0.9c0.5,0,0.8,0.2,0.8,0.5C201.4,29.4,201.4,31.2,201.4,33.9z"/>
</g>
</svg>
