<?xml version="1.0" encoding="utf-8"?>
<!-- Generator: Adobe Illustrator 18.1.0, SVG Export Plug-In . SVG Version: 6.00 Build 0)  -->
<svg version="1.1" id="Layer_1" xmlns="http://www.w3.org/2000/svg" xmlns:xlink="http://www.w3.org/1999/xlink" x="0px" y="0px"
	 viewBox="0 0 221.6 105" enable-background="new 0 0 221.6 105" xml:space="preserve">
<g>
	<g>
		<polygon fill="#FFFFFF" points="31.1,51.2 16.3,86.3 29.1,86.7 37.4,96 53.1,59.5 		"/>
		<path fill="#E57E25" d="M44,71.2c-15.9,0-28.8-12.9-28.8-28.8c0-15.9,12.9-28.8,28.8-28.8c15.9,0,28.8,12.9,28.8,28.8
			C72.8,58.3,59.9,71.2,44,71.2z"/>
		<path fill="#FFFFFF" d="M66.2,64.5c5.9-5.9,9.2-13.8,9.2-22.1s-3.3-16.2-9.2-22.1c-5.9-5.9-13.8-9.2-22.1-9.2s-16.2,3.3-22.1,9.2
			C16,26.2,12.7,34,12.7,42.4s3.3,16.2,9.2,22.1c5.7,5.7,13.3,9,21.3,9.2l7.2,23.1l9.3-7.6l13.1,0.6L65,65.7
			C65.4,65.3,65.8,64.9,66.2,64.5z"/>
		<path fill="#FFFFFF" d="M44,16.2c14.5,0,26.2,11.7,26.2,26.2S58.5,68.6,44,68.6c-14.5,0-26.2-11.7-26.2-26.2S29.6,16.2,44,16.2"/>
		<path fill="#E57E25" d="M64.1,62.4c5.4-5.4,8.3-12.5,8.3-20s-2.9-14.7-8.3-20c-5.4-5.4-12.5-8.3-20-8.3c-7.6,0-14.7,2.9-20,8.3
			c-5.4,5.4-8.3,12.5-8.3,20s2.9,14.7,8.3,20c4.5,4.5,10.2,7.3,16.3,8.1l0.1,0.4l3.3,10.6l1.1-2.6l-2.6-8.2c0.6,0,1.2,0.1,1.7,0.1
			C51.6,70.7,58.7,67.8,64.1,62.4z"/>
		<path fill="#FFFFFF" d="M44,16.2c14.5,0,26.2,11.7,26.2,26.2S58.5,68.6,44,68.6S17.8,56.9,17.8,42.4S29.6,16.2,44,16.2"/>
		<g>
			<path fill="#E57E25" d="M37.7,44.7c0.3,0,0.6-0.2,0.8-0.5c0.9-1.4,2.8-2.1,5.7-2.1l3.9,0.2c2.5,0,4.3-0.6,5.2-1.7
				c1-1.1,1.5-3.2,1.5-6.1c0-2.9-0.7-5-2-6.3c-1.3-1.3-3.8-1.9-7.4-1.9c-3.7,0-6.2,0.7-7.7,2c-1.5,1.3-2.2,4.4-2.2,9.2
				C35.6,42.3,36.3,44.7,37.7,44.7z"/>
			<path fill="#E57E25" d="M51,48.8c-2.6,0-6.6,0.9-12.2,2.8c-5.6,1.9-8.4,3.8-8.4,5.7c0,0.7,0.3,1.1,1,1.3c0.9,0.5,1.6,1.4,2.3,2.5
				c0.9,1.5,1.7,3.6,2.2,6.2c2.6,0.8,5.3,1.3,8.1,1.3c3.6,0,7.1-0.7,10.3-2.1C54.8,58,55,52.7,55,50.8C54.9,49.5,53.6,48.8,51,48.8z
				"/>
		</g>
	</g>
	<polygon fill="#E57E25" points="35.9,67.1 36,67.3 39.7,68.7 46.7,68.7 55.1,67.1 53.1,65.5 39.5,66 	"/>
</g>
<g>
	<text transform="matrix(1 0 0 1 184.9301 28.2251)" fill="#FFFFFF" font-family="'Oxygen-Regular'" font-size="6.8643">Meinung. </text>
</g>
<text transform="matrix(1 0 0 1 184.9301 38.4418)" fill="#FFFFFF" font-family="'Oxygen-Regular'" font-size="6.8643">Daten.</text>
<text transform="matrix(1 0 0 1 184.9301 48.8324)" fill="#FFFFFF" font-family="'Oxygen-Regular'" font-size="6.8643">Pixel.</text>
<g>
	<text transform="matrix(1 0 0 1 88.2885 48.8324)" fill="#FFFFFF" font-family="'Aladin-Regular'" font-size="39.3084">idipferl</text>
</g>
<text transform="matrix(1 0 0 1 88.2881 80.0107)" fill="#FFFFFF" font-family="'OpenSans'" font-size="19">NEWSLETTER</text>
</svg>
