<?xml version="1.0" encoding="utf-8"?>
<!-- Generator: Adobe Illustrator 18.1.0, SVG Export Plug-In . SVG Version: 6.00 Build 0)  -->
<svg version="1.1" id="Layer_1" xmlns="http://www.w3.org/2000/svg" xmlns:xlink="http://www.w3.org/1999/xlink" x="0px" y="0px"
	 viewBox="0 0 100 100.1" enable-background="new 0 0 100 100.1" xml:space="preserve">
<g>
	<g id="flat-icon-485">
		<g>
			<g>
				<g>
					<path fill="#EFB5B5" d="M83.8,50.5h-5.6c-1.3-2.1-3-4-5.4-5.6l7.8-7.8h-8.1c-4.8,0-8.9,3.2-10.2,7.5c-0.3-0.5-0.5-1.3-0.5-2.1
						c0-1.1,0.3-2.1,1.1-3c-4.3-1.3-9.1-2.4-14.5-2.4c-14,0-26,5.9-30.3,14.2c-1.1-1.1-1.9-2.4-1.9-4v-2.1l-1.1,1.1
						c-2.1,2.1-2.1,5.4,0,7.5l1.6,1.6c-0.3,1.1-0.3,2.1-0.3,3.2c0,6.4,4.3,12.1,10.7,16.1v8.1c0,1.6,1.1,2.7,2.7,2.7h5.4
						c1.6,0,2.7-1.1,2.7-2.7v-4c3.5,0.8,7,1.3,10.7,1.3c3.8,0,7.3-0.5,10.7-1.3v4c0,1.6,1.1,2.7,2.7,2.7h5.4c1.6,0,2.7-1.1,2.7-2.7
						v-8.1c9.4-5.4,13.4-10.5,15.3-14c0.5-0.8,0.8-1.6,0.8-2.4v-5.6C86,51.6,84.9,50.5,83.8,50.5z"/>
				</g>
			</g>
		</g>
		<path fill="#020202" d="M69.9,55.9c-1.6,0-2.7-1.3-2.7-2.7c0-1.3,1.1-2.7,2.7-2.7c1.6,0,2.7,1.3,2.7,2.7
			C72.5,54.6,71.5,55.9,69.9,55.9z"/>
		<g>
			<path fill="#FACE5A" d="M20.4,44c5.9-5.4,15-8.9,25.1-9.5c0.3-1.1,0.4-2.3,0.4-3.6c0-8.9-7.2-16.1-16.1-16.1S13.7,22,13.7,30.9
				C13.7,36.3,16.4,41.1,20.4,44z"/>
			<path fill="#E4B651" d="M23.6,41.5c4.8-3.3,11-5.6,17.8-6.6c0.4-1.2,0.7-2.6,0.7-4c0-6.8-5.5-12.3-12.3-12.3s-12.3,5.5-12.3,12.3
				C17.6,35.4,20,39.3,23.6,41.5z"/>
		</g>
		<path fill="#FACE5A" d="M27.7,39c1.4-0.7,3-1.4,4.6-1.9V22.2h-6.7v4.2h2.1V39z"/>
	</g>
</g>
</svg>
