<?xml version="1.0" encoding="utf-8"?>
<!-- Generator: Adobe Illustrator 18.1.0, SVG Export Plug-In . SVG Version: 6.00 Build 0)  -->
<svg version="1.1" id="Layer_1" xmlns="http://www.w3.org/2000/svg" xmlns:xlink="http://www.w3.org/1999/xlink" x="0px" y="0px"
	 viewBox="0 0 100 100.1" enable-background="new 0 0 100 100.1" xml:space="preserve">
<g>
	<g id="flat-icon-467">
		<g>
			<g id="Icons_160_">
				<g>
					<g>
						<path fill="#D7D7D7" d="M78.3,30.8L65.9,50h8.2c0,13.6-11,24.6-24.6,24.6c-8,0-15-3.8-19.5-9.7l-4.7,7.3
							c6,6.6,14.6,10.7,24.2,10.7c18.2,0,32.9-14.7,32.9-32.9h8.3L78.3,30.8z"/>
						<path fill="#D7D7D7" d="M24.8,50c0-13.6,11-24.6,24.6-24.6c8,0,15,3.8,19.5,9.7l4.7-7.3c-6-6.6-14.6-10.7-24.2-10.7
							c-18.2,0-32.9,14.7-32.9,32.9H8.3l12.4,19.2L33,50H24.8z"/>
					</g>
					<g>
						<path fill="#779FD4" d="M55.8,50.7c-1.8,1.3-4,2-6.3,2s-4.6-0.8-6.3-2c-3.2,0.7-5.7,1.8-7.4,2.8c-1.7,1-2.8,2.8-2.8,4.8V61h33
							v-2.7c0-2-1.1-3.8-2.8-4.8C61.5,52.6,59,51.4,55.8,50.7z"/>
						<circle fill="#F3DCCE" cx="49.5" cy="41.8" r="8.2"/>
					</g>
				</g>
			</g>
		</g>
		<path fill="#ABABAB" d="M81.5,57.4c0.5-2.4,0.9-4.8,0.9-7.4h-8.2L81.5,57.4z"/>
	</g>
</g>
</svg>
