<?xml version="1.0" encoding="utf-8"?>
<!-- Generator: Adobe Illustrator 18.1.0, SVG Export Plug-In . SVG Version: 6.00 Build 0)  -->
<svg version="1.1" id="Layer_1" xmlns="http://www.w3.org/2000/svg" xmlns:xlink="http://www.w3.org/1999/xlink" x="0px" y="0px"
	 viewBox="0 0 100 100.1" enable-background="new 0 0 100 100.1" xml:space="preserve">
<g>
	<g id="flat-icon-471">
		<g>
			<path fill="#797979" d="M19.6,35.1v37.3c0,1.2,1,2.2,2.2,2.2h50.4c1.2,0,2.2-1,2.2-2.2V35.1H19.6z"/>
			<rect x="24" y="35.1" fill="#F9F9F9" width="46" height="35.1"/>
			<path fill="#343433" d="M72.2,21.9H21.8c-1.2,0-2.2,1-2.2,2.2v11h54.8v-11C74.4,22.9,73.4,21.9,72.2,21.9z"/>
			<g>
				<g>
					<g>
						<g>
							<circle fill="#EE5F59" cx="26.2" cy="28.5" r="2.2"/>
							<circle fill="#F5BC2E" cx="34.9" cy="28.5" r="2.2"/>
							<circle fill="#6EBD47" cx="43.7" cy="28.5" r="2.2"/>
						</g>
					</g>
				</g>
			</g>
			<rect x="28.4" y="39.5" fill="#EA7A26" width="37.3" height="13.2"/>
			<rect x="28.4" y="57" fill="#5985C4" width="8.8" height="8.8"/>
			<rect x="41.5" y="57" fill="#5985C4" width="8.8" height="8.8"/>
			<rect x="54.7" y="57" fill="#5985C4" width="8.8" height="8.8"/>
			<path fill="#489E62" d="M67.7,54.8c-8.5,0-15.4,6.9-15.4,15.4s6.9,15.4,15.4,15.4s15.4-6.9,15.4-15.4
				C83.2,61.7,76.2,54.8,67.7,54.8z"/>
			<polygon fill="#FFFFFF" points="65.5,77.3 59,70.7 62.1,67.6 65.5,71.1 73.4,63.2 76.5,66.3 			"/>
		</g>
	</g>
</g>
</svg>
